<?xml version="1.0" encoding="utf-8"?>
<!DOCTYPE svg PUBLIC "-//W3C//DTD SVG 1.1//EN" "http://www.w3.org/Graphics/SVG/1.1/DTD/svg11.dtd">
<svg version="1.1" id="Layer_1" xmlns="http://www.w3.org/2000/svg" xmlns:xlink="http://www.w3.org/1999/xlink" x="0px" y="0px"
width="486px" height="486px" viewBox="0 0 486 486" enable-background="new 0 0 486 486" xml:space="preserve">
<rect x="0" y="0" width="486" height="486" fill="rgb(255,255,255)" /><g transform="translate(18,18)"><g><defs>
    <linearGradient gradientTransform="rotate(90)" id="grad">
    <stop offset="5%" stop-color="rgb(7,86,133)" />
    <stop offset="95%" stop-color="rgb(2,119,189)" />
    </linearGradient>
<mask id="gmask"><g>
<g transform="translate(198,0) scale(0.037,0.037)"><g transform="" style="fill: rgb(255, 255, 255);">
<path d="M250,38.5c116.813,0,211.5,94.693,211.5,211.5c0,116.813-94.687,211.5-211.5,211.5c-116.807,0-211.5-94.687-211.5-211.5
	C38.5,133.193,133.193,38.5,250,38.5z"/>
</g></g><g transform="translate(252,0) scale(0.037,0.037)"><g transform="" style="fill: rgb(255, 255, 255);">
<path d="M38.5,211.5c0,42.907,0,123.188,0,171.55c0,23.857,0,39.95,0,39.95v17.5V470v30h423v-30v-29.5V423c0,0,0-16.216,0-39.95
	c0-51.332,0-137.84,0-171.55C461.5,94.699,366.8,0,250,0C133.191,0,38.5,94.699,38.5,211.5z"/>
</g></g><g transform="translate(144,18) scale(0.037,0.037)"><g transform="" style="fill: rgb(255, 255, 255);">
<path d="M38.5,211.5c0,42.907,0,123.188,0,171.55c0,23.857,0,39.95,0,39.95v17.5V470v30h423v-30v-29.5V423c0,0,0-16.216,0-39.95
	c0-51.332,0-137.84,0-171.55C461.5,94.699,366.8,0,250,0C133.191,0,38.5,94.699,38.5,211.5z"/>
</g></g><g transform="translate(216,18) scale(0.037,0.037)"><g transform="" style="fill: rgb(255, 255, 255);">
<path d="M250,38.5c116.813,0,211.5,94.693,211.5,211.5c0,116.813-94.687,211.5-211.5,211.5c-116.807,0-211.5-94.687-211.5-211.5
	C38.5,133.193,133.193,38.5,250,38.5z"/>
</g></g><g transform="translate(234,18) scale(0.037,0.037)"><g transform="" style="fill: rgb(255, 255, 255);">
<path d="M250,38.5c116.813,0,211.5,94.693,211.5,211.5c0,116.813-94.687,211.5-211.5,211.5c-116.807,0-211.5-94.687-211.5-211.5
	C38.5,133.193,133.193,38.5,250,38.5z"/>
</g></g><g transform="translate(252,18) scale(0.037,0.037)"><g transform="" style="fill: rgb(255, 255, 255);">
<path d="M461.5,288.5c0-42.907,0-123.188,0-171.55c0-23.857,0-39.95,0-39.95V59.5V30V0h-423v30v29.5V77c0,0,0,16.216,0,39.95
	c0,51.332,0,137.84,0,171.55C38.5,405.301,133.2,500,250,500C366.809,500,461.5,405.301,461.5,288.5z"/>
</g></g><g transform="translate(288,18) scale(0.037,0.037)"><g transform="" style="fill: rgb(255, 255, 255);">
<path d="M38.5,211.5c0,42.907,0,123.188,0,171.55c0,23.857,0,39.95,0,39.95v17.5V470v30h423v-30v-29.5V423c0,0,0-16.216,0-39.95
	c0-51.332,0-137.84,0-171.55C461.5,94.699,366.8,0,250,0C133.191,0,38.5,94.699,38.5,211.5z"/>
</g></g><g transform="translate(144,36) scale(0.037,0.037)"><g transform="" style="fill: rgb(255, 255, 255);">
<polygon points="38.5,250 38.5,500 461.5,500 461.5,250 461.5,0 38.5,0 "/>
</g></g><g transform="translate(288,36) scale(0.037,0.037)"><g transform="" style="fill: rgb(255, 255, 255);">
<polygon points="38.5,250 38.5,500 461.5,500 461.5,250 461.5,0 38.5,0 "/>
</g></g><g transform="translate(144,54) scale(0.037,0.037)"><g transform="" style="fill: rgb(255, 255, 255);">
<path d="M461.5,288.5c0-42.907,0-123.188,0-171.55c0-23.857,0-39.95,0-39.95V59.5V30V0h-423v30v29.5V77c0,0,0,16.216,0,39.95
	c0,51.332,0,137.84,0,171.55C38.5,405.301,133.2,500,250,500C366.809,500,461.5,405.301,461.5,288.5z"/>
</g></g><g transform="translate(162,54) scale(0.037,0.037)"><g transform="" style="fill: rgb(255, 255, 255);">
<path d="M38.5,211.5c0,42.907,0,123.188,0,171.55c0,23.857,0,39.95,0,39.95v17.5V470v30h423v-30v-29.5V423c0,0,0-16.216,0-39.95
	c0-51.332,0-137.84,0-171.55C461.5,94.699,366.8,0,250,0C133.191,0,38.5,94.699,38.5,211.5z"/>
</g></g><g transform="translate(180,54) scale(0.037,0.037)"><g transform="" style="fill: rgb(255, 255, 255);">
<path d="M38.5,211.5c0,42.907,0,123.188,0,171.55c0,23.857,0,39.95,0,39.95v17.5V470v30h423v-30v-29.5V423c0,0,0-16.216,0-39.95
	c0-51.332,0-137.84,0-171.55C461.5,94.699,366.8,0,250,0C133.191,0,38.5,94.699,38.5,211.5z"/>
</g></g><g transform="translate(234,54) scale(0.037,0.037)"><g transform="" style="fill: rgb(255, 255, 255);">
<path d="M38.5,211.5c0,42.907,0,123.188,0,171.55c0,23.857,0,39.95,0,39.95v17.5V470v30h423v-30v-29.5V423c0,0,0-16.216,0-39.95
	c0-51.332,0-137.84,0-171.55C461.5,94.699,366.8,0,250,0C133.191,0,38.5,94.699,38.5,211.5z"/>
</g></g><g transform="translate(270,54) scale(0.037,0.037)"><g transform="" style="fill: rgb(255, 255, 255);">
<path d="M250,38.5c116.813,0,211.5,94.693,211.5,211.5c0,116.813-94.687,211.5-211.5,211.5c-116.807,0-211.5-94.687-211.5-211.5
	C38.5,133.193,133.193,38.5,250,38.5z"/>
</g></g><g transform="translate(288,54) scale(0.037,0.037)"><g transform="" style="fill: rgb(255, 255, 255);">
<polygon points="38.5,250 38.5,500 461.5,500 461.5,250 461.5,0 38.5,0 "/>
</g></g><g transform="translate(162,72) scale(0.037,0.037)"><g transform="" style="fill: rgb(255, 255, 255);">
<path d="M461.5,288.5c0-42.907,0-123.188,0-171.55c0-23.857,0-39.95,0-39.95V59.5V30V0h-423v30v29.5V77c0,0,0,16.216,0,39.95
	c0,51.332,0,137.84,0,171.55C38.5,405.301,133.2,500,250,500C366.809,500,461.5,405.301,461.5,288.5z"/>
</g></g><g transform="translate(180,72) scale(0.037,0.037)"><g transform="" style="fill: rgb(255, 255, 255);">
<polygon points="38.5,250 38.5,500 461.5,500 461.5,250 461.5,0 38.5,0 "/>
</g></g><g transform="translate(198,72) scale(0.037,0.037)"><g transform="" style="fill: rgb(255, 255, 255);">
<path d="M38.5,211.5c0,42.907,0,123.188,0,171.55c0,23.857,0,39.95,0,39.95v17.5V470v30h423v-30v-29.5V423c0,0,0-16.216,0-39.95
	c0-51.332,0-137.84,0-171.55C461.5,94.699,366.8,0,250,0C133.191,0,38.5,94.699,38.5,211.5z"/>
</g></g><g transform="translate(234,72) scale(0.037,0.037)"><g transform="" style="fill: rgb(255, 255, 255);">
<polygon points="38.5,250 38.5,500 461.5,500 461.5,250 461.5,0 38.5,0 "/>
</g></g><g transform="translate(288,72) scale(0.037,0.037)"><g transform="" style="fill: rgb(255, 255, 255);">
<polygon points="38.5,250 38.5,500 461.5,500 461.5,250 461.5,0 38.5,0 "/>
</g></g><g transform="translate(180,90) scale(0.037,0.037)"><g transform="" style="fill: rgb(255, 255, 255);">
<polygon points="38.5,250 38.5,500 461.5,500 461.5,250 461.5,0 38.5,0 "/>
</g></g><g transform="translate(198,90) scale(0.037,0.037)"><g transform="" style="fill: rgb(255, 255, 255);">
<path d="M461.5,288.5c0-42.907,0-123.188,0-171.55c0-23.857,0-39.95,0-39.95V59.5V30V0h-423v30v29.5V77c0,0,0,16.216,0,39.95
	c0,51.332,0,137.84,0,171.55C38.5,405.301,133.2,500,250,500C366.809,500,461.5,405.301,461.5,288.5z"/>
</g></g><g transform="translate(234,90) scale(0.037,0.037)"><g transform="" style="fill: rgb(255, 255, 255);">
<path d="M461.5,288.5c0-42.907,0-123.188,0-171.55c0-23.857,0-39.95,0-39.95V59.5V30V0h-423v30v29.5V77c0,0,0,16.216,0,39.95
	c0,51.332,0,137.84,0,171.55C38.5,405.301,133.2,500,250,500C366.809,500,461.5,405.301,461.5,288.5z"/>
</g></g><g transform="translate(288,90) scale(0.037,0.037)"><g transform="" style="fill: rgb(255, 255, 255);">
<polygon points="38.5,250 38.5,500 461.5,500 461.5,250 461.5,0 38.5,0 "/>
</g></g><g transform="translate(144,108) scale(0.037,0.037)"><g transform="" style="fill: rgb(255, 255, 255);">
<path d="M38.5,211.5c0,42.907,0,123.188,0,171.55c0,23.857,0,39.95,0,39.95v17.5V470v30h423v-30v-29.5V423c0,0,0-16.216,0-39.95
	c0-51.332,0-137.84,0-171.55C461.5,94.699,366.8,0,250,0C133.191,0,38.5,94.699,38.5,211.5z"/>
</g></g><g transform="translate(180,108) scale(0.037,0.037)"><g transform="" style="fill: rgb(255, 255, 255);">
<polygon points="38.5,250 38.5,500 461.5,500 461.5,250 461.5,0 38.5,0 "/>
</g></g><g transform="translate(216,108) scale(0.037,0.037)"><g transform="" style="fill: rgb(255, 255, 255);">
<path d="M38.5,211.5c0,42.907,0,123.188,0,171.55c0,23.857,0,39.95,0,39.95v17.5V470v30h423v-30v-29.5V423c0,0,0-16.216,0-39.95
	c0-51.332,0-137.84,0-171.55C461.5,94.699,366.8,0,250,0C133.191,0,38.5,94.699,38.5,211.5z"/>
</g></g><g transform="translate(252,108) scale(0.037,0.037)"><g transform="" style="fill: rgb(255, 255, 255);">
<path d="M38.5,211.5c0,42.907,0,123.188,0,171.55c0,23.857,0,39.95,0,39.95v17.5V470v30h423v-30v-29.5V423c0,0,0-16.216,0-39.95
	c0-51.332,0-137.84,0-171.55C461.5,94.699,366.8,0,250,0C133.191,0,38.5,94.699,38.5,211.5z"/>
</g></g><g transform="translate(288,108) scale(0.037,0.037)"><g transform="" style="fill: rgb(255, 255, 255);">
<polygon points="38.5,250 38.5,500 461.5,500 461.5,250 461.5,0 38.5,0 "/>
</g></g><g transform="translate(144,126) scale(0.037,0.037)"><g transform="" style="fill: rgb(255, 255, 255);">
<polygon points="38.5,250 38.5,500 461.5,500 461.5,250 461.5,0 38.5,0 "/>
</g></g><g transform="translate(162,126) scale(0.037,0.037)"><g transform="" style="fill: rgb(255, 255, 255);">
<path d="M250,38.5c116.813,0,211.5,94.693,211.5,211.5c0,116.813-94.687,211.5-211.5,211.5c-116.807,0-211.5-94.687-211.5-211.5
	C38.5,133.193,133.193,38.5,250,38.5z"/>
</g></g><g transform="translate(180,126) scale(0.037,0.037)"><g transform="" style="fill: rgb(255, 255, 255);">
<path d="M461.5,288.5c0-42.907,0-123.188,0-171.55c0-23.857,0-39.95,0-39.95V59.5V30V0h-423v30v29.5V77c0,0,0,16.216,0,39.95
	c0,51.332,0,137.84,0,171.55C38.5,405.301,133.2,500,250,500C366.809,500,461.5,405.301,461.5,288.5z"/>
</g></g><g transform="translate(198,126) scale(0.037,0.037)"><g transform="" style="fill: rgb(255, 255, 255);">
<path d="M38.5,211.5c0,42.907,0,123.188,0,171.55c0,23.857,0,39.95,0,39.95v17.5V470v30h423v-30v-29.5V423c0,0,0-16.216,0-39.95
	c0-51.332,0-137.84,0-171.55C461.5,94.699,366.8,0,250,0C133.191,0,38.5,94.699,38.5,211.5z"/>
</g></g><g transform="translate(216,126) scale(0.037,0.037)"><g transform="" style="fill: rgb(255, 255, 255);">
<path d="M461.5,288.5c0-42.907,0-123.188,0-171.55c0-23.857,0-39.95,0-39.95V59.5V30V0h-423v30v29.5V77c0,0,0,16.216,0,39.95
	c0,51.332,0,137.84,0,171.55C38.5,405.301,133.2,500,250,500C366.809,500,461.5,405.301,461.5,288.5z"/>
</g></g><g transform="translate(252,126) scale(0.037,0.037)"><g transform="" style="fill: rgb(255, 255, 255);">
<polygon points="38.5,250 38.5,500 461.5,500 461.5,250 461.5,0 38.5,0 "/>
</g></g><g transform="translate(288,126) scale(0.037,0.037)"><g transform="" style="fill: rgb(255, 255, 255);">
<path d="M461.5,288.5c0-42.907,0-123.188,0-171.55c0-23.857,0-39.95,0-39.95V59.5V30V0h-423v30v29.5V77c0,0,0,16.216,0,39.95
	c0,51.332,0,137.84,0,171.55C38.5,405.301,133.2,500,250,500C366.809,500,461.5,405.301,461.5,288.5z"/>
</g></g><g transform="translate(0,144) scale(0.037,0.037)"><g transform="" style="fill: rgb(255, 255, 255);">
<path d="M38.5,211.5c0,42.907,0,123.188,0,171.55c0,23.857,0,39.95,0,39.95v17.5V470v30h423v-30v-29.5V423c0,0,0-16.216,0-39.95
	c0-51.332,0-137.84,0-171.55C461.5,94.699,366.8,0,250,0C133.191,0,38.5,94.699,38.5,211.5z"/>
</g></g><g transform="translate(108,144) scale(0.037,0.037)"><g transform="" style="fill: rgb(255, 255, 255);">
<path d="M250,38.5c116.813,0,211.5,94.693,211.5,211.5c0,116.813-94.687,211.5-211.5,211.5c-116.807,0-211.5-94.687-211.5-211.5
	C38.5,133.193,133.193,38.5,250,38.5z"/>
</g></g><g transform="translate(144,144) scale(0.037,0.037)"><g transform="" style="fill: rgb(255, 255, 255);">
<polygon points="38.5,250 38.5,500 461.5,500 461.5,250 461.5,0 38.5,0 "/>
</g></g><g transform="translate(198,144) scale(0.037,0.037)"><g transform="" style="fill: rgb(255, 255, 255);">
<path d="M461.5,288.5c0-42.907,0-123.188,0-171.55c0-23.857,0-39.95,0-39.95V59.5V30V0h-423v30v29.5V77c0,0,0,16.216,0,39.95
	c0,51.332,0,137.84,0,171.55C38.5,405.301,133.2,500,250,500C366.809,500,461.5,405.301,461.5,288.5z"/>
</g></g><g transform="translate(234,144) scale(0.037,0.037)"><g transform="" style="fill: rgb(255, 255, 255);">
<path d="M250,38.5c116.813,0,211.5,94.693,211.5,211.5c0,116.813-94.687,211.5-211.5,211.5c-116.807,0-211.5-94.687-211.5-211.5
	C38.5,133.193,133.193,38.5,250,38.5z"/>
</g></g><g transform="translate(252,144) scale(0.037,0.037)"><g transform="" style="fill: rgb(255, 255, 255);">
<polygon points="38.5,250 38.5,500 461.5,500 461.5,250 461.5,0 38.5,0 "/>
</g></g><g transform="translate(306,144) scale(0.037,0.037)"><g transform="" style="fill: rgb(255, 255, 255);">
<path d="M38.5,211.5c0,42.907,0,123.188,0,171.55c0,23.857,0,39.95,0,39.95v17.5V470v30h423v-30v-29.5V423c0,0,0-16.216,0-39.95
	c0-51.332,0-137.84,0-171.55C461.5,94.699,366.8,0,250,0C133.191,0,38.5,94.699,38.5,211.5z"/>
</g></g><g transform="translate(324,144) scale(0.037,0.037)"><g transform="" style="fill: rgb(255, 255, 255);">
<path d="M250,38.5c116.813,0,211.5,94.693,211.5,211.5c0,116.813-94.687,211.5-211.5,211.5c-116.807,0-211.5-94.687-211.5-211.5
	C38.5,133.193,133.193,38.5,250,38.5z"/>
</g></g><g transform="translate(378,144) scale(0.037,0.037)"><g transform="" style="fill: rgb(255, 255, 255);">
<path d="M38.5,211.5c0,42.907,0,123.188,0,171.55c0,23.857,0,39.95,0,39.95v17.5V470v30h423v-30v-29.5V423c0,0,0-16.216,0-39.95
	c0-51.332,0-137.84,0-171.55C461.5,94.699,366.8,0,250,0C133.191,0,38.5,94.699,38.5,211.5z"/>
</g></g><g transform="translate(396,144) scale(0.037,0.037)"><g transform="" style="fill: rgb(255, 255, 255);">
<path d="M38.5,211.5c0,42.907,0,123.188,0,171.55c0,23.857,0,39.95,0,39.95v17.5V470v30h423v-30v-29.5V423c0,0,0-16.216,0-39.95
	c0-51.332,0-137.84,0-171.55C461.5,94.699,366.8,0,250,0C133.191,0,38.5,94.699,38.5,211.5z"/>
</g></g><g transform="translate(414,144) scale(0.037,0.037)"><g transform="" style="fill: rgb(255, 255, 255);">
<path d="M38.5,211.5c0,42.907,0,123.188,0,171.55c0,23.857,0,39.95,0,39.95v17.5V470v30h423v-30v-29.5V423c0,0,0-16.216,0-39.95
	c0-51.332,0-137.84,0-171.55C461.5,94.699,366.8,0,250,0C133.191,0,38.5,94.699,38.5,211.5z"/>
</g></g><g transform="translate(0,162) scale(0.037,0.037)"><g transform="" style="fill: rgb(255, 255, 255);">
<polygon points="38.5,250 38.5,500 461.5,500 461.5,250 461.5,0 38.5,0 "/>
</g></g><g transform="translate(36,162) scale(0.037,0.037)"><g transform="" style="fill: rgb(255, 255, 255);">
<path d="M250,38.5c116.813,0,211.5,94.693,211.5,211.5c0,116.813-94.687,211.5-211.5,211.5c-116.807,0-211.5-94.687-211.5-211.5
	C38.5,133.193,133.193,38.5,250,38.5z"/>
</g></g><g transform="translate(72,162) scale(0.037,0.037)"><g transform="" style="fill: rgb(255, 255, 255);">
<path d="M38.5,211.5c0,42.907,0,123.188,0,171.55c0,23.857,0,39.95,0,39.95v17.5V470v30h423v-30v-29.5V423c0,0,0-16.216,0-39.95
	c0-51.332,0-137.84,0-171.55C461.5,94.699,366.8,0,250,0C133.191,0,38.5,94.699,38.5,211.5z"/>
</g></g><g transform="translate(90,162) scale(0.037,0.037)"><g transform="" style="fill: rgb(255, 255, 255);">
<path d="M38.5,211.5c0,42.907,0,123.188,0,171.55c0,23.857,0,39.95,0,39.95v17.5V470v30h423v-30v-29.5V423c0,0,0-16.216,0-39.95
	c0-51.332,0-137.84,0-171.55C461.5,94.699,366.8,0,250,0C133.191,0,38.5,94.699,38.5,211.5z"/>
</g></g><g transform="translate(144,162) scale(0.037,0.037)"><g transform="" style="fill: rgb(255, 255, 255);">
<path d="M461.5,288.5c0-42.907,0-123.188,0-171.55c0-23.857,0-39.95,0-39.95V59.5V30V0h-423v30v29.5V77c0,0,0,16.216,0,39.95
	c0,51.332,0,137.84,0,171.55C38.5,405.301,133.2,500,250,500C366.809,500,461.5,405.301,461.5,288.5z"/>
</g></g><g transform="translate(162,162) scale(0.037,0.037)"><g transform="" style="fill: rgb(255, 255, 255);">
<path d="M38.5,211.5c0,42.907,0,123.188,0,171.55c0,23.857,0,39.95,0,39.95v17.5V470v30h423v-30v-29.5V423c0,0,0-16.216,0-39.95
	c0-51.332,0-137.84,0-171.55C461.5,94.699,366.8,0,250,0C133.191,0,38.5,94.699,38.5,211.5z"/>
</g></g><g transform="translate(252,162) scale(0.037,0.037)"><g transform="" style="fill: rgb(255, 255, 255);">
<polygon points="38.5,250 38.5,500 461.5,500 461.5,250 461.5,0 38.5,0 "/>
</g></g><g transform="translate(270,162) scale(0.037,0.037)"><g transform="" style="fill: rgb(255, 255, 255);">
<path d="M38.5,211.5c0,42.907,0,123.188,0,171.55c0,23.857,0,39.95,0,39.95v17.5V470v30h423v-30v-29.5V423c0,0,0-16.216,0-39.95
	c0-51.332,0-137.84,0-171.55C461.5,94.699,366.8,0,250,0C133.191,0,38.5,94.699,38.5,211.5z"/>
</g></g><g transform="translate(306,162) scale(0.037,0.037)"><g transform="" style="fill: rgb(255, 255, 255);">
<path d="M461.5,288.5c0-42.907,0-123.188,0-171.55c0-23.857,0-39.95,0-39.95V59.5V30V0h-423v30v29.5V77c0,0,0,16.216,0,39.95
	c0,51.332,0,137.84,0,171.55C38.5,405.301,133.2,500,250,500C366.809,500,461.5,405.301,461.5,288.5z"/>
</g></g><g transform="translate(342,162) scale(0.037,0.037)"><g transform="" style="fill: rgb(255, 255, 255);">
<path d="M38.5,211.5c0,42.907,0,123.188,0,171.55c0,23.857,0,39.95,0,39.95v17.5V470v30h423v-30v-29.5V423c0,0,0-16.216,0-39.95
	c0-51.332,0-137.84,0-171.55C461.5,94.699,366.8,0,250,0C133.191,0,38.5,94.699,38.5,211.5z"/>
</g></g><g transform="translate(360,162) scale(0.037,0.037)"><g transform="" style="fill: rgb(255, 255, 255);">
<path d="M250,38.5c116.813,0,211.5,94.693,211.5,211.5c0,116.813-94.687,211.5-211.5,211.5c-116.807,0-211.5-94.687-211.5-211.5
	C38.5,133.193,133.193,38.5,250,38.5z"/>
</g></g><g transform="translate(378,162) scale(0.037,0.037)"><g transform="" style="fill: rgb(255, 255, 255);">
<polygon points="38.5,250 38.5,500 461.5,500 461.5,250 461.5,0 38.5,0 "/>
</g></g><g transform="translate(396,162) scale(0.037,0.037)"><g transform="" style="fill: rgb(255, 255, 255);">
<path d="M461.5,288.5c0-42.907,0-123.188,0-171.55c0-23.857,0-39.95,0-39.95V59.5V30V0h-423v30v29.5V77c0,0,0,16.216,0,39.95
	c0,51.332,0,137.84,0,171.55C38.5,405.301,133.2,500,250,500C366.809,500,461.5,405.301,461.5,288.5z"/>
</g></g><g transform="translate(414,162) scale(0.037,0.037)"><g transform="" style="fill: rgb(255, 255, 255);">
<polygon points="38.5,250 38.5,500 461.5,500 461.5,250 461.5,0 38.5,0 "/>
</g></g><g transform="translate(0,180) scale(0.037,0.037)"><g transform="" style="fill: rgb(255, 255, 255);">
<path d="M461.5,288.5c0-42.907,0-123.188,0-171.55c0-23.857,0-39.95,0-39.95V59.5V30V0h-423v30v29.5V77c0,0,0,16.216,0,39.95
	c0,51.332,0,137.84,0,171.55C38.5,405.301,133.2,500,250,500C366.809,500,461.5,405.301,461.5,288.5z"/>
</g></g><g transform="translate(54,180) scale(0.037,0.037)"><g transform="" style="fill: rgb(255, 255, 255);">
<path d="M38.5,211.5c0,42.907,0,123.188,0,171.55c0,23.857,0,39.95,0,39.95v17.5V470v30h423v-30v-29.5V423c0,0,0-16.216,0-39.95
	c0-51.332,0-137.84,0-171.55C461.5,94.699,366.8,0,250,0C133.191,0,38.5,94.699,38.5,211.5z"/>
</g></g><g transform="translate(72,180) scale(0.037,0.037)"><g transform="" style="fill: rgb(255, 255, 255);">
<polygon points="38.5,250 38.5,500 461.5,500 461.5,250 461.5,0 38.5,0 "/>
</g></g><g transform="translate(90,180) scale(0.037,0.037)"><g transform="" style="fill: rgb(255, 255, 255);">
<polygon points="38.5,250 38.5,500 461.5,500 461.5,250 461.5,0 38.5,0 "/>
</g></g><g transform="translate(108,180) scale(0.037,0.037)"><g transform="" style="fill: rgb(255, 255, 255);">
<path d="M250,38.5c116.813,0,211.5,94.693,211.5,211.5c0,116.813-94.687,211.5-211.5,211.5c-116.807,0-211.5-94.687-211.5-211.5
	C38.5,133.193,133.193,38.5,250,38.5z"/>
</g></g><g transform="translate(162,180) scale(0.037,0.037)"><g transform="" style="fill: rgb(255, 255, 255);">
<polygon points="38.5,250 38.5,500 461.5,500 461.5,250 461.5,0 38.5,0 "/>
</g></g><g transform="translate(180,180) scale(0.037,0.037)"><g transform="" style="fill: rgb(255, 255, 255);">
<path d="M250,38.5c116.813,0,211.5,94.693,211.5,211.5c0,116.813-94.687,211.5-211.5,211.5c-116.807,0-211.5-94.687-211.5-211.5
	C38.5,133.193,133.193,38.5,250,38.5z"/>
</g></g><g transform="translate(198,180) scale(0.037,0.037)"><g transform="" style="fill: rgb(255, 255, 255);">
<path d="M250,38.5c116.813,0,211.5,94.693,211.5,211.5c0,116.813-94.687,211.5-211.5,211.5c-116.807,0-211.5-94.687-211.5-211.5
	C38.5,133.193,133.193,38.5,250,38.5z"/>
</g></g><g transform="translate(216,180) scale(0.037,0.037)"><g transform="" style="fill: rgb(255, 255, 255);">
<path d="M38.5,211.5c0,42.907,0,123.188,0,171.55c0,23.857,0,39.95,0,39.95v17.5V470v30h423v-30v-29.5V423c0,0,0-16.216,0-39.95
	c0-51.332,0-137.84,0-171.55C461.5,94.699,366.8,0,250,0C133.191,0,38.5,94.699,38.5,211.5z"/>
</g></g><g transform="translate(252,180) scale(0.037,0.037)"><g transform="" style="fill: rgb(255, 255, 255);">
<polygon points="38.5,250 38.5,500 461.5,500 461.5,250 461.5,0 38.5,0 "/>
</g></g><g transform="translate(270,180) scale(0.037,0.037)"><g transform="" style="fill: rgb(255, 255, 255);">
<path d="M461.5,288.5c0-42.907,0-123.188,0-171.55c0-23.857,0-39.95,0-39.95V59.5V30V0h-423v30v29.5V77c0,0,0,16.216,0,39.95
	c0,51.332,0,137.84,0,171.55C38.5,405.301,133.2,500,250,500C366.809,500,461.5,405.301,461.5,288.5z"/>
</g></g><g transform="translate(288,180) scale(0.037,0.037)"><g transform="" style="fill: rgb(255, 255, 255);">
<path d="M38.5,211.5c0,42.907,0,123.188,0,171.55c0,23.857,0,39.95,0,39.95v17.5V470v30h423v-30v-29.5V423c0,0,0-16.216,0-39.95
	c0-51.332,0-137.84,0-171.55C461.5,94.699,366.8,0,250,0C133.191,0,38.5,94.699,38.5,211.5z"/>
</g></g><g transform="translate(324,180) scale(0.037,0.037)"><g transform="" style="fill: rgb(255, 255, 255);">
<path d="M250,38.5c116.813,0,211.5,94.693,211.5,211.5c0,116.813-94.687,211.5-211.5,211.5c-116.807,0-211.5-94.687-211.5-211.5
	C38.5,133.193,133.193,38.5,250,38.5z"/>
</g></g><g transform="translate(342,180) scale(0.037,0.037)"><g transform="" style="fill: rgb(255, 255, 255);">
<path d="M461.5,288.5c0-42.907,0-123.188,0-171.55c0-23.857,0-39.95,0-39.95V59.5V30V0h-423v30v29.5V77c0,0,0,16.216,0,39.95
	c0,51.332,0,137.84,0,171.55C38.5,405.301,133.2,500,250,500C366.809,500,461.5,405.301,461.5,288.5z"/>
</g></g><g transform="translate(378,180) scale(0.037,0.037)"><g transform="" style="fill: rgb(255, 255, 255);">
<polygon points="38.5,250 38.5,500 461.5,500 461.5,250 461.5,0 38.5,0 "/>
</g></g><g transform="translate(414,180) scale(0.037,0.037)"><g transform="" style="fill: rgb(255, 255, 255);">
<path d="M461.5,288.5c0-42.907,0-123.188,0-171.55c0-23.857,0-39.95,0-39.95V59.5V30V0h-423v30v29.5V77c0,0,0,16.216,0,39.95
	c0,51.332,0,137.84,0,171.55C38.5,405.301,133.2,500,250,500C366.809,500,461.5,405.301,461.5,288.5z"/>
</g></g><g transform="translate(432,180) scale(0.037,0.037)"><g transform="" style="fill: rgb(255, 255, 255);">
<path d="M38.5,211.5c0,42.907,0,123.188,0,171.55c0,23.857,0,39.95,0,39.95v17.5V470v30h423v-30v-29.5V423c0,0,0-16.216,0-39.95
	c0-51.332,0-137.84,0-171.55C461.5,94.699,366.8,0,250,0C133.191,0,38.5,94.699,38.5,211.5z"/>
</g></g><g transform="translate(18,198) scale(0.037,0.037)"><g transform="" style="fill: rgb(255, 255, 255);">
<path d="M38.5,211.5c0,42.907,0,123.188,0,171.55c0,23.857,0,39.95,0,39.95v17.5V470v30h423v-30v-29.5V423c0,0,0-16.216,0-39.95
	c0-51.332,0-137.84,0-171.55C461.5,94.699,366.8,0,250,0C133.191,0,38.5,94.699,38.5,211.5z"/>
</g></g><g transform="translate(36,198) scale(0.037,0.037)"><g transform="" style="fill: rgb(255, 255, 255);">
<path d="M250,38.5c116.813,0,211.5,94.693,211.5,211.5c0,116.813-94.687,211.5-211.5,211.5c-116.807,0-211.5-94.687-211.5-211.5
	C38.5,133.193,133.193,38.5,250,38.5z"/>
</g></g><g transform="translate(54,198) scale(0.037,0.037)"><g transform="" style="fill: rgb(255, 255, 255);">
<polygon points="38.5,250 38.5,500 461.5,500 461.5,250 461.5,0 38.5,0 "/>
</g></g><g transform="translate(72,198) scale(0.037,0.037)"><g transform="" style="fill: rgb(255, 255, 255);">
<polygon points="38.5,250 38.5,500 461.5,500 461.5,250 461.5,0 38.5,0 "/>
</g></g><g transform="translate(90,198) scale(0.037,0.037)"><g transform="" style="fill: rgb(255, 255, 255);">
<path d="M461.5,288.5c0-42.907,0-123.188,0-171.55c0-23.857,0-39.95,0-39.95V59.5V30V0h-423v30v29.5V77c0,0,0,16.216,0,39.95
	c0,51.332,0,137.84,0,171.55C38.5,405.301,133.2,500,250,500C366.809,500,461.5,405.301,461.5,288.5z"/>
</g></g><g transform="translate(144,198) scale(0.037,0.037)"><g transform="" style="fill: rgb(255, 255, 255);">
<path d="M38.5,211.5c0,42.907,0,123.188,0,171.55c0,23.857,0,39.95,0,39.95v17.5V470v30h423v-30v-29.5V423c0,0,0-16.216,0-39.95
	c0-51.332,0-137.84,0-171.55C461.5,94.699,366.8,0,250,0C133.191,0,38.5,94.699,38.5,211.5z"/>
</g></g><g transform="translate(162,198) scale(0.037,0.037)"><g transform="" style="fill: rgb(255, 255, 255);">
<path d="M461.5,288.5c0-42.907,0-123.188,0-171.55c0-23.857,0-39.95,0-39.95V59.5V30V0h-423v30v29.5V77c0,0,0,16.216,0,39.95
	c0,51.332,0,137.84,0,171.55C38.5,405.301,133.2,500,250,500C366.809,500,461.5,405.301,461.5,288.5z"/>
</g></g><g transform="translate(216,198) scale(0.037,0.037)"><g transform="" style="fill: rgb(255, 255, 255);">
<polygon points="38.5,250 38.5,500 461.5,500 461.5,250 461.5,0 38.5,0 "/>
</g></g><g transform="translate(252,198) scale(0.037,0.037)"><g transform="" style="fill: rgb(255, 255, 255);">
<path d="M461.5,288.5c0-42.907,0-123.188,0-171.55c0-23.857,0-39.95,0-39.95V59.5V30V0h-423v30v29.5V77c0,0,0,16.216,0,39.95
	c0,51.332,0,137.84,0,171.55C38.5,405.301,133.2,500,250,500C366.809,500,461.5,405.301,461.5,288.5z"/>
</g></g><g transform="translate(288,198) scale(0.037,0.037)"><g transform="" style="fill: rgb(255, 255, 255);">
<polygon points="38.5,250 38.5,500 461.5,500 461.5,250 461.5,0 38.5,0 "/>
</g></g><g transform="translate(378,198) scale(0.037,0.037)"><g transform="" style="fill: rgb(255, 255, 255);">
<path d="M461.5,288.5c0-42.907,0-123.188,0-171.55c0-23.857,0-39.95,0-39.95V59.5V30V0h-423v30v29.5V77c0,0,0,16.216,0,39.95
	c0,51.332,0,137.84,0,171.55C38.5,405.301,133.2,500,250,500C366.809,500,461.5,405.301,461.5,288.5z"/>
</g></g><g transform="translate(432,198) scale(0.037,0.037)"><g transform="" style="fill: rgb(255, 255, 255);">
<polygon points="38.5,250 38.5,500 461.5,500 461.5,250 461.5,0 38.5,0 "/>
</g></g><g transform="translate(18,216) scale(0.037,0.037)"><g transform="" style="fill: rgb(255, 255, 255);">
<path d="M461.5,288.5c0-42.907,0-123.188,0-171.55c0-23.857,0-39.95,0-39.95V59.5V30V0h-423v30v29.5V77c0,0,0,16.216,0,39.95
	c0,51.332,0,137.84,0,171.55C38.5,405.301,133.2,500,250,500C366.809,500,461.5,405.301,461.5,288.5z"/>
</g></g><g transform="translate(54,216) scale(0.037,0.037)"><g transform="" style="fill: rgb(255, 255, 255);">
<path d="M461.5,288.5c0-42.907,0-123.188,0-171.55c0-23.857,0-39.95,0-39.95V59.5V30V0h-423v30v29.5V77c0,0,0,16.216,0,39.95
	c0,51.332,0,137.84,0,171.55C38.5,405.301,133.2,500,250,500C366.809,500,461.5,405.301,461.5,288.5z"/>
</g></g><g transform="translate(72,216) scale(0.037,0.037)"><g transform="" style="fill: rgb(255, 255, 255);">
<path d="M461.5,288.5c0-42.907,0-123.188,0-171.55c0-23.857,0-39.95,0-39.95V59.5V30V0h-423v30v29.5V77c0,0,0,16.216,0,39.95
	c0,51.332,0,137.84,0,171.55C38.5,405.301,133.2,500,250,500C366.809,500,461.5,405.301,461.5,288.5z"/>
</g></g><g transform="translate(108,216) scale(0.037,0.037)"><g transform="" style="fill: rgb(255, 255, 255);">
<path d="M250,38.5c116.813,0,211.5,94.693,211.5,211.5c0,116.813-94.687,211.5-211.5,211.5c-116.807,0-211.5-94.687-211.5-211.5
	C38.5,133.193,133.193,38.5,250,38.5z"/>
</g></g><g transform="translate(126,216) scale(0.037,0.037)"><g transform="" style="fill: rgb(255, 255, 255);">
<path d="M250,38.5c116.813,0,211.5,94.693,211.5,211.5c0,116.813-94.687,211.5-211.5,211.5c-116.807,0-211.5-94.687-211.5-211.5
	C38.5,133.193,133.193,38.5,250,38.5z"/>
</g></g><g transform="translate(144,216) scale(0.037,0.037)"><g transform="" style="fill: rgb(255, 255, 255);">
<polygon points="38.5,250 38.5,500 461.5,500 461.5,250 461.5,0 38.5,0 "/>
</g></g><g transform="translate(216,216) scale(0.037,0.037)"><g transform="" style="fill: rgb(255, 255, 255);">
<path d="M461.5,288.5c0-42.907,0-123.188,0-171.55c0-23.857,0-39.95,0-39.95V59.5V30V0h-423v30v29.5V77c0,0,0,16.216,0,39.95
	c0,51.332,0,137.84,0,171.55C38.5,405.301,133.2,500,250,500C366.809,500,461.5,405.301,461.5,288.5z"/>
</g></g><g transform="translate(288,216) scale(0.037,0.037)"><g transform="" style="fill: rgb(255, 255, 255);">
<path d="M461.5,288.5c0-42.907,0-123.188,0-171.55c0-23.857,0-39.95,0-39.95V59.5V30V0h-423v30v29.5V77c0,0,0,16.216,0,39.95
	c0,51.332,0,137.84,0,171.55C38.5,405.301,133.2,500,250,500C366.809,500,461.5,405.301,461.5,288.5z"/>
</g></g><g transform="translate(324,216) scale(0.037,0.037)"><g transform="" style="fill: rgb(255, 255, 255);">
<path d="M250,38.5c116.813,0,211.5,94.693,211.5,211.5c0,116.813-94.687,211.5-211.5,211.5c-116.807,0-211.5-94.687-211.5-211.5
	C38.5,133.193,133.193,38.5,250,38.5z"/>
</g></g><g transform="translate(432,216) scale(0.037,0.037)"><g transform="" style="fill: rgb(255, 255, 255);">
<path d="M461.5,288.5c0-42.907,0-123.188,0-171.55c0-23.857,0-39.95,0-39.95V59.5V30V0h-423v30v29.5V77c0,0,0,16.216,0,39.95
	c0,51.332,0,137.84,0,171.55C38.5,405.301,133.2,500,250,500C366.809,500,461.5,405.301,461.5,288.5z"/>
</g></g><g transform="translate(0,234) scale(0.037,0.037)"><g transform="" style="fill: rgb(255, 255, 255);">
<path d="M38.5,211.5c0,42.907,0,123.188,0,171.55c0,23.857,0,39.95,0,39.95v17.5V470v30h423v-30v-29.5V423c0,0,0-16.216,0-39.95
	c0-51.332,0-137.84,0-171.55C461.5,94.699,366.8,0,250,0C133.191,0,38.5,94.699,38.5,211.5z"/>
</g></g><g transform="translate(144,234) scale(0.037,0.037)"><g transform="" style="fill: rgb(255, 255, 255);">
<path d="M461.5,288.5c0-42.907,0-123.188,0-171.55c0-23.857,0-39.95,0-39.95V59.5V30V0h-423v30v29.5V77c0,0,0,16.216,0,39.95
	c0,51.332,0,137.84,0,171.55C38.5,405.301,133.2,500,250,500C366.809,500,461.5,405.301,461.5,288.5z"/>
</g></g><g transform="translate(162,234) scale(0.037,0.037)"><g transform="" style="fill: rgb(255, 255, 255);">
<path d="M38.5,211.5c0,42.907,0,123.188,0,171.55c0,23.857,0,39.95,0,39.95v17.5V470v30h423v-30v-29.5V423c0,0,0-16.216,0-39.95
	c0-51.332,0-137.84,0-171.55C461.5,94.699,366.8,0,250,0C133.191,0,38.5,94.699,38.5,211.5z"/>
</g></g><g transform="translate(234,234) scale(0.037,0.037)"><g transform="" style="fill: rgb(255, 255, 255);">
<path d="M250,38.5c116.813,0,211.5,94.693,211.5,211.5c0,116.813-94.687,211.5-211.5,211.5c-116.807,0-211.5-94.687-211.5-211.5
	C38.5,133.193,133.193,38.5,250,38.5z"/>
</g></g><g transform="translate(252,234) scale(0.037,0.037)"><g transform="" style="fill: rgb(255, 255, 255);">
<path d="M250,38.5c116.813,0,211.5,94.693,211.5,211.5c0,116.813-94.687,211.5-211.5,211.5c-116.807,0-211.5-94.687-211.5-211.5
	C38.5,133.193,133.193,38.5,250,38.5z"/>
</g></g><g transform="translate(270,234) scale(0.037,0.037)"><g transform="" style="fill: rgb(255, 255, 255);">
<path d="M38.5,211.5c0,42.907,0,123.188,0,171.55c0,23.857,0,39.95,0,39.95v17.5V470v30h423v-30v-29.5V423c0,0,0-16.216,0-39.95
	c0-51.332,0-137.84,0-171.55C461.5,94.699,366.8,0,250,0C133.191,0,38.5,94.699,38.5,211.5z"/>
</g></g><g transform="translate(342,234) scale(0.037,0.037)"><g transform="" style="fill: rgb(255, 255, 255);">
<path d="M38.5,211.5c0,42.907,0,123.188,0,171.55c0,23.857,0,39.95,0,39.95v17.5V470v30h423v-30v-29.5V423c0,0,0-16.216,0-39.95
	c0-51.332,0-137.84,0-171.55C461.5,94.699,366.8,0,250,0C133.191,0,38.5,94.699,38.5,211.5z"/>
</g></g><g transform="translate(414,234) scale(0.037,0.037)"><g transform="" style="fill: rgb(255, 255, 255);">
<path d="M38.5,211.5c0,42.907,0,123.188,0,171.55c0,23.857,0,39.95,0,39.95v17.5V470v30h423v-30v-29.5V423c0,0,0-16.216,0-39.95
	c0-51.332,0-137.84,0-171.55C461.5,94.699,366.8,0,250,0C133.191,0,38.5,94.699,38.5,211.5z"/>
</g></g><g transform="translate(0,252) scale(0.037,0.037)"><g transform="" style="fill: rgb(255, 255, 255);">
<polygon points="38.5,250 38.5,500 461.5,500 461.5,250 461.5,0 38.5,0 "/>
</g></g><g transform="translate(36,252) scale(0.037,0.037)"><g transform="" style="fill: rgb(255, 255, 255);">
<path d="M38.5,211.5c0,42.907,0,123.188,0,171.55c0,23.857,0,39.95,0,39.95v17.5V470v30h423v-30v-29.5V423c0,0,0-16.216,0-39.95
	c0-51.332,0-137.84,0-171.55C461.5,94.699,366.8,0,250,0C133.191,0,38.5,94.699,38.5,211.5z"/>
</g></g><g transform="translate(54,252) scale(0.037,0.037)"><g transform="" style="fill: rgb(255, 255, 255);">
<path d="M250,38.5c116.813,0,211.5,94.693,211.5,211.5c0,116.813-94.687,211.5-211.5,211.5c-116.807,0-211.5-94.687-211.5-211.5
	C38.5,133.193,133.193,38.5,250,38.5z"/>
</g></g><g transform="translate(108,252) scale(0.037,0.037)"><g transform="" style="fill: rgb(255, 255, 255);">
<path d="M250,38.5c116.813,0,211.5,94.693,211.5,211.5c0,116.813-94.687,211.5-211.5,211.5c-116.807,0-211.5-94.687-211.5-211.5
	C38.5,133.193,133.193,38.5,250,38.5z"/>
</g></g><g transform="translate(162,252) scale(0.037,0.037)"><g transform="" style="fill: rgb(255, 255, 255);">
<path d="M461.5,288.5c0-42.907,0-123.188,0-171.55c0-23.857,0-39.95,0-39.95V59.5V30V0h-423v30v29.5V77c0,0,0,16.216,0,39.95
	c0,51.332,0,137.84,0,171.55C38.5,405.301,133.2,500,250,500C366.809,500,461.5,405.301,461.5,288.5z"/>
</g></g><g transform="translate(180,252) scale(0.037,0.037)"><g transform="" style="fill: rgb(255, 255, 255);">
<path d="M250,38.5c116.813,0,211.5,94.693,211.5,211.5c0,116.813-94.687,211.5-211.5,211.5c-116.807,0-211.5-94.687-211.5-211.5
	C38.5,133.193,133.193,38.5,250,38.5z"/>
</g></g><g transform="translate(198,252) scale(0.037,0.037)"><g transform="" style="fill: rgb(255, 255, 255);">
<path d="M38.5,211.5c0,42.907,0,123.188,0,171.55c0,23.857,0,39.95,0,39.95v17.5V470v30h423v-30v-29.5V423c0,0,0-16.216,0-39.95
	c0-51.332,0-137.84,0-171.55C461.5,94.699,366.8,0,250,0C133.191,0,38.5,94.699,38.5,211.5z"/>
</g></g><g transform="translate(216,252) scale(0.037,0.037)"><g transform="" style="fill: rgb(255, 255, 255);">
<path d="M250,38.5c116.813,0,211.5,94.693,211.5,211.5c0,116.813-94.687,211.5-211.5,211.5c-116.807,0-211.5-94.687-211.5-211.5
	C38.5,133.193,133.193,38.5,250,38.5z"/>
</g></g><g transform="translate(270,252) scale(0.037,0.037)"><g transform="" style="fill: rgb(255, 255, 255);">
<path d="M461.5,288.5c0-42.907,0-123.188,0-171.55c0-23.857,0-39.95,0-39.95V59.5V30V0h-423v30v29.5V77c0,0,0,16.216,0,39.95
	c0,51.332,0,137.84,0,171.55C38.5,405.301,133.2,500,250,500C366.809,500,461.5,405.301,461.5,288.5z"/>
</g></g><g transform="translate(288,252) scale(0.037,0.037)"><g transform="" style="fill: rgb(255, 255, 255);">
<path d="M250,38.5c116.813,0,211.5,94.693,211.5,211.5c0,116.813-94.687,211.5-211.5,211.5c-116.807,0-211.5-94.687-211.5-211.5
	C38.5,133.193,133.193,38.5,250,38.5z"/>
</g></g><g transform="translate(324,252) scale(0.037,0.037)"><g transform="" style="fill: rgb(255, 255, 255);">
<path d="M250,38.5c116.813,0,211.5,94.693,211.5,211.5c0,116.813-94.687,211.5-211.5,211.5c-116.807,0-211.5-94.687-211.5-211.5
	C38.5,133.193,133.193,38.5,250,38.5z"/>
</g></g><g transform="translate(342,252) scale(0.037,0.037)"><g transform="" style="fill: rgb(255, 255, 255);">
<polygon points="38.5,250 38.5,500 461.5,500 461.5,250 461.5,0 38.5,0 "/>
</g></g><g transform="translate(360,252) scale(0.037,0.037)"><g transform="" style="fill: rgb(255, 255, 255);">
<path d="M250,38.5c116.813,0,211.5,94.693,211.5,211.5c0,116.813-94.687,211.5-211.5,211.5c-116.807,0-211.5-94.687-211.5-211.5
	C38.5,133.193,133.193,38.5,250,38.5z"/>
</g></g><g transform="translate(378,252) scale(0.037,0.037)"><g transform="" style="fill: rgb(255, 255, 255);">
<path d="M38.5,211.5c0,42.907,0,123.188,0,171.55c0,23.857,0,39.95,0,39.95v17.5V470v30h423v-30v-29.5V423c0,0,0-16.216,0-39.95
	c0-51.332,0-137.84,0-171.55C461.5,94.699,366.8,0,250,0C133.191,0,38.5,94.699,38.5,211.5z"/>
</g></g><g transform="translate(414,252) scale(0.037,0.037)"><g transform="" style="fill: rgb(255, 255, 255);">
<path d="M461.5,288.5c0-42.907,0-123.188,0-171.55c0-23.857,0-39.95,0-39.95V59.5V30V0h-423v30v29.5V77c0,0,0,16.216,0,39.95
	c0,51.332,0,137.84,0,171.55C38.5,405.301,133.2,500,250,500C366.809,500,461.5,405.301,461.5,288.5z"/>
</g></g><g transform="translate(432,252) scale(0.037,0.037)"><g transform="" style="fill: rgb(255, 255, 255);">
<path d="M38.5,211.5c0,42.907,0,123.188,0,171.55c0,23.857,0,39.95,0,39.95v17.5V470v30h423v-30v-29.5V423c0,0,0-16.216,0-39.95
	c0-51.332,0-137.84,0-171.55C461.5,94.699,366.8,0,250,0C133.191,0,38.5,94.699,38.5,211.5z"/>
</g></g><g transform="translate(0,270) scale(0.037,0.037)"><g transform="" style="fill: rgb(255, 255, 255);">
<polygon points="38.5,250 38.5,500 461.5,500 461.5,250 461.5,0 38.5,0 "/>
</g></g><g transform="translate(36,270) scale(0.037,0.037)"><g transform="" style="fill: rgb(255, 255, 255);">
<polygon points="38.5,250 38.5,500 461.5,500 461.5,250 461.5,0 38.5,0 "/>
</g></g><g transform="translate(90,270) scale(0.037,0.037)"><g transform="" style="fill: rgb(255, 255, 255);">
<path d="M250,38.5c116.813,0,211.5,94.693,211.5,211.5c0,116.813-94.687,211.5-211.5,211.5c-116.807,0-211.5-94.687-211.5-211.5
	C38.5,133.193,133.193,38.5,250,38.5z"/>
</g></g><g transform="translate(126,270) scale(0.037,0.037)"><g transform="" style="fill: rgb(255, 255, 255);">
<path d="M38.5,211.5c0,42.907,0,123.188,0,171.55c0,23.857,0,39.95,0,39.95v17.5V470v30h423v-30v-29.5V423c0,0,0-16.216,0-39.95
	c0-51.332,0-137.84,0-171.55C461.5,94.699,366.8,0,250,0C133.191,0,38.5,94.699,38.5,211.5z"/>
</g></g><g transform="translate(198,270) scale(0.037,0.037)"><g transform="" style="fill: rgb(255, 255, 255);">
<polygon points="38.5,250 38.5,500 461.5,500 461.5,250 461.5,0 38.5,0 "/>
</g></g><g transform="translate(306,270) scale(0.037,0.037)"><g transform="" style="fill: rgb(255, 255, 255);">
<path d="M38.5,211.5c0,42.907,0,123.188,0,171.55c0,23.857,0,39.95,0,39.95v17.5V470v30h423v-30v-29.5V423c0,0,0-16.216,0-39.95
	c0-51.332,0-137.84,0-171.55C461.5,94.699,366.8,0,250,0C133.191,0,38.5,94.699,38.5,211.5z"/>
</g></g><g transform="translate(342,270) scale(0.037,0.037)"><g transform="" style="fill: rgb(255, 255, 255);">
<polygon points="38.5,250 38.5,500 461.5,500 461.5,250 461.5,0 38.5,0 "/>
</g></g><g transform="translate(378,270) scale(0.037,0.037)"><g transform="" style="fill: rgb(255, 255, 255);">
<path d="M461.5,288.5c0-42.907,0-123.188,0-171.55c0-23.857,0-39.95,0-39.95V59.5V30V0h-423v30v29.5V77c0,0,0,16.216,0,39.95
	c0,51.332,0,137.84,0,171.55C38.5,405.301,133.2,500,250,500C366.809,500,461.5,405.301,461.5,288.5z"/>
</g></g><g transform="translate(396,270) scale(0.037,0.037)"><g transform="" style="fill: rgb(255, 255, 255);">
<path d="M38.5,211.5c0,42.907,0,123.188,0,171.55c0,23.857,0,39.95,0,39.95v17.5V470v30h423v-30v-29.5V423c0,0,0-16.216,0-39.95
	c0-51.332,0-137.84,0-171.55C461.5,94.699,366.8,0,250,0C133.191,0,38.5,94.699,38.5,211.5z"/>
</g></g><g transform="translate(432,270) scale(0.037,0.037)"><g transform="" style="fill: rgb(255, 255, 255);">
<path d="M461.5,288.5c0-42.907,0-123.188,0-171.55c0-23.857,0-39.95,0-39.95V59.5V30V0h-423v30v29.5V77c0,0,0,16.216,0,39.95
	c0,51.332,0,137.84,0,171.55C38.5,405.301,133.2,500,250,500C366.809,500,461.5,405.301,461.5,288.5z"/>
</g></g><g transform="translate(0,288) scale(0.037,0.037)"><g transform="" style="fill: rgb(255, 255, 255);">
<path d="M461.5,288.5c0-42.907,0-123.188,0-171.55c0-23.857,0-39.95,0-39.95V59.5V30V0h-423v30v29.5V77c0,0,0,16.216,0,39.95
	c0,51.332,0,137.84,0,171.55C38.5,405.301,133.2,500,250,500C366.809,500,461.5,405.301,461.5,288.5z"/>
</g></g><g transform="translate(36,288) scale(0.037,0.037)"><g transform="" style="fill: rgb(255, 255, 255);">
<path d="M461.5,288.5c0-42.907,0-123.188,0-171.55c0-23.857,0-39.95,0-39.95V59.5V30V0h-423v30v29.5V77c0,0,0,16.216,0,39.95
	c0,51.332,0,137.84,0,171.55C38.5,405.301,133.2,500,250,500C366.809,500,461.5,405.301,461.5,288.5z"/>
</g></g><g transform="translate(54,288) scale(0.037,0.037)"><g transform="" style="fill: rgb(255, 255, 255);">
<path d="M250,38.5c116.813,0,211.5,94.693,211.5,211.5c0,116.813-94.687,211.5-211.5,211.5c-116.807,0-211.5-94.687-211.5-211.5
	C38.5,133.193,133.193,38.5,250,38.5z"/>
</g></g><g transform="translate(108,288) scale(0.037,0.037)"><g transform="" style="fill: rgb(255, 255, 255);">
<path d="M250,38.5c116.813,0,211.5,94.693,211.5,211.5c0,116.813-94.687,211.5-211.5,211.5c-116.807,0-211.5-94.687-211.5-211.5
	C38.5,133.193,133.193,38.5,250,38.5z"/>
</g></g><g transform="translate(126,288) scale(0.037,0.037)"><g transform="" style="fill: rgb(255, 255, 255);">
<path d="M461.5,288.5c0-42.907,0-123.188,0-171.55c0-23.857,0-39.95,0-39.95V59.5V30V0h-423v30v29.5V77c0,0,0,16.216,0,39.95
	c0,51.332,0,137.84,0,171.55C38.5,405.301,133.2,500,250,500C366.809,500,461.5,405.301,461.5,288.5z"/>
</g></g><g transform="translate(144,288) scale(0.037,0.037)"><g transform="" style="fill: rgb(255, 255, 255);">
<path d="M38.5,211.5c0,42.907,0,123.188,0,171.55c0,23.857,0,39.95,0,39.95v17.5V470v30h423v-30v-29.5V423c0,0,0-16.216,0-39.95
	c0-51.332,0-137.84,0-171.55C461.5,94.699,366.8,0,250,0C133.191,0,38.5,94.699,38.5,211.5z"/>
</g></g><g transform="translate(198,288) scale(0.037,0.037)"><g transform="" style="fill: rgb(255, 255, 255);">
<path d="M461.5,288.5c0-42.907,0-123.188,0-171.55c0-23.857,0-39.95,0-39.95V59.5V30V0h-423v30v29.5V77c0,0,0,16.216,0,39.95
	c0,51.332,0,137.84,0,171.55C38.5,405.301,133.2,500,250,500C366.809,500,461.5,405.301,461.5,288.5z"/>
</g></g><g transform="translate(216,288) scale(0.037,0.037)"><g transform="" style="fill: rgb(255, 255, 255);">
<path d="M38.5,211.5c0,42.907,0,123.188,0,171.55c0,23.857,0,39.95,0,39.95v17.5V470v30h423v-30v-29.5V423c0,0,0-16.216,0-39.95
	c0-51.332,0-137.84,0-171.55C461.5,94.699,366.8,0,250,0C133.191,0,38.5,94.699,38.5,211.5z"/>
</g></g><g transform="translate(234,288) scale(0.037,0.037)"><g transform="" style="fill: rgb(255, 255, 255);">
<path d="M38.5,211.5c0,42.907,0,123.188,0,171.55c0,23.857,0,39.95,0,39.95v17.5V470v30h423v-30v-29.5V423c0,0,0-16.216,0-39.95
	c0-51.332,0-137.84,0-171.55C461.5,94.699,366.8,0,250,0C133.191,0,38.5,94.699,38.5,211.5z"/>
</g></g><g transform="translate(270,288) scale(0.037,0.037)"><g transform="" style="fill: rgb(255, 255, 255);">
<path d="M250,38.5c116.813,0,211.5,94.693,211.5,211.5c0,116.813-94.687,211.5-211.5,211.5c-116.807,0-211.5-94.687-211.5-211.5
	C38.5,133.193,133.193,38.5,250,38.5z"/>
</g></g><g transform="translate(288,288) scale(0.037,0.037)"><g transform="" style="fill: rgb(255, 255, 255);">
<path d="M38.5,211.5c0,42.907,0,123.188,0,171.55c0,23.857,0,39.95,0,39.95v17.5V470v30h423v-30v-29.5V423c0,0,0-16.216,0-39.95
	c0-51.332,0-137.84,0-171.55C461.5,94.699,366.8,0,250,0C133.191,0,38.5,94.699,38.5,211.5z"/>
</g></g><g transform="translate(306,288) scale(0.037,0.037)"><g transform="" style="fill: rgb(255, 255, 255);">
<path d="M461.5,288.5c0-42.907,0-123.188,0-171.55c0-23.857,0-39.95,0-39.95V59.5V30V0h-423v30v29.5V77c0,0,0,16.216,0,39.95
	c0,51.332,0,137.84,0,171.55C38.5,405.301,133.2,500,250,500C366.809,500,461.5,405.301,461.5,288.5z"/>
</g></g><g transform="translate(324,288) scale(0.037,0.037)"><g transform="" style="fill: rgb(255, 255, 255);">
<path d="M250,38.5c116.813,0,211.5,94.693,211.5,211.5c0,116.813-94.687,211.5-211.5,211.5c-116.807,0-211.5-94.687-211.5-211.5
	C38.5,133.193,133.193,38.5,250,38.5z"/>
</g></g><g transform="translate(342,288) scale(0.037,0.037)"><g transform="" style="fill: rgb(255, 255, 255);">
<path d="M461.5,288.5c0-42.907,0-123.188,0-171.55c0-23.857,0-39.95,0-39.95V59.5V30V0h-423v30v29.5V77c0,0,0,16.216,0,39.95
	c0,51.332,0,137.84,0,171.55C38.5,405.301,133.2,500,250,500C366.809,500,461.5,405.301,461.5,288.5z"/>
</g></g><g transform="translate(360,288) scale(0.037,0.037)"><g transform="" style="fill: rgb(255, 255, 255);">
<path d="M38.5,211.5c0,42.907,0,123.188,0,171.55c0,23.857,0,39.95,0,39.95v17.5V470v30h423v-30v-29.5V423c0,0,0-16.216,0-39.95
	c0-51.332,0-137.84,0-171.55C461.5,94.699,366.8,0,250,0C133.191,0,38.5,94.699,38.5,211.5z"/>
</g></g><g transform="translate(396,288) scale(0.037,0.037)"><g transform="" style="fill: rgb(255, 255, 255);">
<path d="M461.5,288.5c0-42.907,0-123.188,0-171.55c0-23.857,0-39.95,0-39.95V59.5V30V0h-423v30v29.5V77c0,0,0,16.216,0,39.95
	c0,51.332,0,137.84,0,171.55C38.5,405.301,133.2,500,250,500C366.809,500,461.5,405.301,461.5,288.5z"/>
</g></g><g transform="translate(144,306) scale(0.037,0.037)"><g transform="" style="fill: rgb(255, 255, 255);">
<path d="M461.5,288.5c0-42.907,0-123.188,0-171.55c0-23.857,0-39.95,0-39.95V59.5V30V0h-423v30v29.5V77c0,0,0,16.216,0,39.95
	c0,51.332,0,137.84,0,171.55C38.5,405.301,133.2,500,250,500C366.809,500,461.5,405.301,461.5,288.5z"/>
</g></g><g transform="translate(162,306) scale(0.037,0.037)"><g transform="" style="fill: rgb(255, 255, 255);">
<path d="M250,38.5c116.813,0,211.5,94.693,211.5,211.5c0,116.813-94.687,211.5-211.5,211.5c-116.807,0-211.5-94.687-211.5-211.5
	C38.5,133.193,133.193,38.5,250,38.5z"/>
</g></g><g transform="translate(180,306) scale(0.037,0.037)"><g transform="" style="fill: rgb(255, 255, 255);">
<path d="M38.5,211.5c0,42.907,0,123.188,0,171.55c0,23.857,0,39.95,0,39.95v17.5V470v30h423v-30v-29.5V423c0,0,0-16.216,0-39.95
	c0-51.332,0-137.84,0-171.55C461.5,94.699,366.8,0,250,0C133.191,0,38.5,94.699,38.5,211.5z"/>
</g></g><g transform="translate(216,306) scale(0.037,0.037)"><g transform="" style="fill: rgb(255, 255, 255);">
<path d="M461.5,288.5c0-42.907,0-123.188,0-171.55c0-23.857,0-39.95,0-39.95V59.5V30V0h-423v30v29.5V77c0,0,0,16.216,0,39.95
	c0,51.332,0,137.84,0,171.55C38.5,405.301,133.2,500,250,500C366.809,500,461.5,405.301,461.5,288.5z"/>
</g></g><g transform="translate(234,306) scale(0.037,0.037)"><g transform="" style="fill: rgb(255, 255, 255);">
<path d="M461.5,288.5c0-42.907,0-123.188,0-171.55c0-23.857,0-39.95,0-39.95V59.5V30V0h-423v30v29.5V77c0,0,0,16.216,0,39.95
	c0,51.332,0,137.84,0,171.55C38.5,405.301,133.2,500,250,500C366.809,500,461.5,405.301,461.5,288.5z"/>
</g></g><g transform="translate(288,306) scale(0.037,0.037)"><g transform="" style="fill: rgb(255, 255, 255);">
<polygon points="38.5,250 38.5,500 461.5,500 461.5,250 461.5,0 38.5,0 "/>
</g></g><g transform="translate(360,306) scale(0.037,0.037)"><g transform="" style="fill: rgb(255, 255, 255);">
<polygon points="38.5,250 38.5,500 461.5,500 461.5,250 461.5,0 38.5,0 "/>
</g></g><g transform="translate(180,324) scale(0.037,0.037)"><g transform="" style="fill: rgb(255, 255, 255);">
<polygon points="38.5,250 38.5,500 461.5,500 461.5,250 461.5,0 38.5,0 "/>
</g></g><g transform="translate(198,324) scale(0.037,0.037)"><g transform="" style="fill: rgb(255, 255, 255);">
<path d="M250,38.5c116.813,0,211.5,94.693,211.5,211.5c0,116.813-94.687,211.5-211.5,211.5c-116.807,0-211.5-94.687-211.5-211.5
	C38.5,133.193,133.193,38.5,250,38.5z"/>
</g></g><g transform="translate(288,324) scale(0.037,0.037)"><g transform="" style="fill: rgb(255, 255, 255);">
<polygon points="38.5,250 38.5,500 461.5,500 461.5,250 461.5,0 38.5,0 "/>
</g></g><g transform="translate(324,324) scale(0.037,0.037)"><g transform="" style="fill: rgb(255, 255, 255);">
<path d="M250,38.5c116.813,0,211.5,94.693,211.5,211.5c0,116.813-94.687,211.5-211.5,211.5c-116.807,0-211.5-94.687-211.5-211.5
	C38.5,133.193,133.193,38.5,250,38.5z"/>
</g></g><g transform="translate(360,324) scale(0.037,0.037)"><g transform="" style="fill: rgb(255, 255, 255);">
<polygon points="38.5,250 38.5,500 461.5,500 461.5,250 461.5,0 38.5,0 "/>
</g></g><g transform="translate(432,324) scale(0.037,0.037)"><g transform="" style="fill: rgb(255, 255, 255);">
<path d="M38.5,211.5c0,42.907,0,123.188,0,171.55c0,23.857,0,39.95,0,39.95v17.5V470v30h423v-30v-29.5V423c0,0,0-16.216,0-39.95
	c0-51.332,0-137.84,0-171.55C461.5,94.699,366.8,0,250,0C133.191,0,38.5,94.699,38.5,211.5z"/>
</g></g><g transform="translate(180,342) scale(0.037,0.037)"><g transform="" style="fill: rgb(255, 255, 255);">
<polygon points="38.5,250 38.5,500 461.5,500 461.5,250 461.5,0 38.5,0 "/>
</g></g><g transform="translate(270,342) scale(0.037,0.037)"><g transform="" style="fill: rgb(255, 255, 255);">
<path d="M38.5,211.5c0,42.907,0,123.188,0,171.55c0,23.857,0,39.95,0,39.95v17.5V470v30h423v-30v-29.5V423c0,0,0-16.216,0-39.95
	c0-51.332,0-137.84,0-171.55C461.5,94.699,366.8,0,250,0C133.191,0,38.5,94.699,38.5,211.5z"/>
</g></g><g transform="translate(288,342) scale(0.037,0.037)"><g transform="" style="fill: rgb(255, 255, 255);">
<polygon points="38.5,250 38.5,500 461.5,500 461.5,250 461.5,0 38.5,0 "/>
</g></g><g transform="translate(360,342) scale(0.037,0.037)"><g transform="" style="fill: rgb(255, 255, 255);">
<polygon points="38.5,250 38.5,500 461.5,500 461.5,250 461.5,0 38.5,0 "/>
</g></g><g transform="translate(414,342) scale(0.037,0.037)"><g transform="" style="fill: rgb(255, 255, 255);">
<path d="M250,38.5c116.813,0,211.5,94.693,211.5,211.5c0,116.813-94.687,211.5-211.5,211.5c-116.807,0-211.5-94.687-211.5-211.5
	C38.5,133.193,133.193,38.5,250,38.5z"/>
</g></g><g transform="translate(432,342) scale(0.037,0.037)"><g transform="" style="fill: rgb(255, 255, 255);">
<path d="M461.5,288.5c0-42.907,0-123.188,0-171.55c0-23.857,0-39.95,0-39.95V59.5V30V0h-423v30v29.5V77c0,0,0,16.216,0,39.95
	c0,51.332,0,137.84,0,171.55C38.5,405.301,133.2,500,250,500C366.809,500,461.5,405.301,461.5,288.5z"/>
</g></g><g transform="translate(180,360) scale(0.037,0.037)"><g transform="" style="fill: rgb(255, 255, 255);">
<path d="M461.5,288.5c0-42.907,0-123.188,0-171.55c0-23.857,0-39.95,0-39.95V59.5V30V0h-423v30v29.5V77c0,0,0,16.216,0,39.95
	c0,51.332,0,137.84,0,171.55C38.5,405.301,133.2,500,250,500C366.809,500,461.5,405.301,461.5,288.5z"/>
</g></g><g transform="translate(198,360) scale(0.037,0.037)"><g transform="" style="fill: rgb(255, 255, 255);">
<path d="M38.5,211.5c0,42.907,0,123.188,0,171.55c0,23.857,0,39.95,0,39.95v17.5V470v30h423v-30v-29.5V423c0,0,0-16.216,0-39.95
	c0-51.332,0-137.84,0-171.55C461.5,94.699,366.8,0,250,0C133.191,0,38.5,94.699,38.5,211.5z"/>
</g></g><g transform="translate(216,360) scale(0.037,0.037)"><g transform="" style="fill: rgb(255, 255, 255);">
<path d="M250,38.5c116.813,0,211.5,94.693,211.5,211.5c0,116.813-94.687,211.5-211.5,211.5c-116.807,0-211.5-94.687-211.5-211.5
	C38.5,133.193,133.193,38.5,250,38.5z"/>
</g></g><g transform="translate(234,360) scale(0.037,0.037)"><g transform="" style="fill: rgb(255, 255, 255);">
<path d="M250,38.5c116.813,0,211.5,94.693,211.5,211.5c0,116.813-94.687,211.5-211.5,211.5c-116.807,0-211.5-94.687-211.5-211.5
	C38.5,133.193,133.193,38.5,250,38.5z"/>
</g></g><g transform="translate(252,360) scale(0.037,0.037)"><g transform="" style="fill: rgb(255, 255, 255);">
<path d="M38.5,211.5c0,42.907,0,123.188,0,171.55c0,23.857,0,39.95,0,39.95v17.5V470v30h423v-30v-29.5V423c0,0,0-16.216,0-39.95
	c0-51.332,0-137.84,0-171.55C461.5,94.699,366.8,0,250,0C133.191,0,38.5,94.699,38.5,211.5z"/>
</g></g><g transform="translate(270,360) scale(0.037,0.037)"><g transform="" style="fill: rgb(255, 255, 255);">
<path d="M461.5,288.5c0-42.907,0-123.188,0-171.55c0-23.857,0-39.95,0-39.95V59.5V30V0h-423v30v29.5V77c0,0,0,16.216,0,39.95
	c0,51.332,0,137.84,0,171.55C38.5,405.301,133.2,500,250,500C366.809,500,461.5,405.301,461.5,288.5z"/>
</g></g><g transform="translate(288,360) scale(0.037,0.037)"><g transform="" style="fill: rgb(255, 255, 255);">
<polygon points="38.5,250 38.5,500 461.5,500 461.5,250 461.5,0 38.5,0 "/>
</g></g><g transform="translate(306,360) scale(0.037,0.037)"><g transform="" style="fill: rgb(255, 255, 255);">
<path d="M38.5,211.5c0,42.907,0,123.188,0,171.55c0,23.857,0,39.95,0,39.95v17.5V470v30h423v-30v-29.5V423c0,0,0-16.216,0-39.95
	c0-51.332,0-137.84,0-171.55C461.5,94.699,366.8,0,250,0C133.191,0,38.5,94.699,38.5,211.5z"/>
</g></g><g transform="translate(324,360) scale(0.037,0.037)"><g transform="" style="fill: rgb(255, 255, 255);">
<path d="M38.5,211.5c0,42.907,0,123.188,0,171.55c0,23.857,0,39.95,0,39.95v17.5V470v30h423v-30v-29.5V423c0,0,0-16.216,0-39.95
	c0-51.332,0-137.84,0-171.55C461.5,94.699,366.8,0,250,0C133.191,0,38.5,94.699,38.5,211.5z"/>
</g></g><g transform="translate(342,360) scale(0.037,0.037)"><g transform="" style="fill: rgb(255, 255, 255);">
<path d="M250,38.5c116.813,0,211.5,94.693,211.5,211.5c0,116.813-94.687,211.5-211.5,211.5c-116.807,0-211.5-94.687-211.5-211.5
	C38.5,133.193,133.193,38.5,250,38.5z"/>
</g></g><g transform="translate(360,360) scale(0.037,0.037)"><g transform="" style="fill: rgb(255, 255, 255);">
<path d="M461.5,288.5c0-42.907,0-123.188,0-171.55c0-23.857,0-39.95,0-39.95V59.5V30V0h-423v30v29.5V77c0,0,0,16.216,0,39.95
	c0,51.332,0,137.84,0,171.55C38.5,405.301,133.2,500,250,500C366.809,500,461.5,405.301,461.5,288.5z"/>
</g></g><g transform="translate(396,360) scale(0.037,0.037)"><g transform="" style="fill: rgb(255, 255, 255);">
<path d="M250,38.5c116.813,0,211.5,94.693,211.5,211.5c0,116.813-94.687,211.5-211.5,211.5c-116.807,0-211.5-94.687-211.5-211.5
	C38.5,133.193,133.193,38.5,250,38.5z"/>
</g></g><g transform="translate(162,378) scale(0.037,0.037)"><g transform="" style="fill: rgb(255, 255, 255);">
<path d="M250,38.5c116.813,0,211.5,94.693,211.5,211.5c0,116.813-94.687,211.5-211.5,211.5c-116.807,0-211.5-94.687-211.5-211.5
	C38.5,133.193,133.193,38.5,250,38.5z"/>
</g></g><g transform="translate(198,378) scale(0.037,0.037)"><g transform="" style="fill: rgb(255, 255, 255);">
<path d="M461.5,288.5c0-42.907,0-123.188,0-171.55c0-23.857,0-39.95,0-39.95V59.5V30V0h-423v30v29.5V77c0,0,0,16.216,0,39.95
	c0,51.332,0,137.84,0,171.55C38.5,405.301,133.2,500,250,500C366.809,500,461.5,405.301,461.5,288.5z"/>
</g></g><g transform="translate(252,378) scale(0.037,0.037)"><g transform="" style="fill: rgb(255, 255, 255);">
<path d="M461.5,288.5c0-42.907,0-123.188,0-171.55c0-23.857,0-39.95,0-39.95V59.5V30V0h-423v30v29.5V77c0,0,0,16.216,0,39.95
	c0,51.332,0,137.84,0,171.55C38.5,405.301,133.2,500,250,500C366.809,500,461.5,405.301,461.5,288.5z"/>
</g></g><g transform="translate(288,378) scale(0.037,0.037)"><g transform="" style="fill: rgb(255, 255, 255);">
<path d="M461.5,288.5c0-42.907,0-123.188,0-171.55c0-23.857,0-39.95,0-39.95V59.5V30V0h-423v30v29.5V77c0,0,0,16.216,0,39.95
	c0,51.332,0,137.84,0,171.55C38.5,405.301,133.2,500,250,500C366.809,500,461.5,405.301,461.5,288.5z"/>
</g></g><g transform="translate(306,378) scale(0.037,0.037)"><g transform="" style="fill: rgb(255, 255, 255);">
<path d="M461.5,288.5c0-42.907,0-123.188,0-171.55c0-23.857,0-39.95,0-39.95V59.5V30V0h-423v30v29.5V77c0,0,0,16.216,0,39.95
	c0,51.332,0,137.84,0,171.55C38.5,405.301,133.2,500,250,500C366.809,500,461.5,405.301,461.5,288.5z"/>
</g></g><g transform="translate(324,378) scale(0.037,0.037)"><g transform="" style="fill: rgb(255, 255, 255);">
<path d="M461.5,288.5c0-42.907,0-123.188,0-171.55c0-23.857,0-39.95,0-39.95V59.5V30V0h-423v30v29.5V77c0,0,0,16.216,0,39.95
	c0,51.332,0,137.84,0,171.55C38.5,405.301,133.2,500,250,500C366.809,500,461.5,405.301,461.5,288.5z"/>
</g></g><g transform="translate(414,378) scale(0.037,0.037)"><g transform="" style="fill: rgb(255, 255, 255);">
<path d="M250,38.5c116.813,0,211.5,94.693,211.5,211.5c0,116.813-94.687,211.5-211.5,211.5c-116.807,0-211.5-94.687-211.5-211.5
	C38.5,133.193,133.193,38.5,250,38.5z"/>
</g></g><g transform="translate(432,378) scale(0.037,0.037)"><g transform="" style="fill: rgb(255, 255, 255);">
<path d="M38.5,211.5c0,42.907,0,123.188,0,171.55c0,23.857,0,39.95,0,39.95v17.5V470v30h423v-30v-29.5V423c0,0,0-16.216,0-39.95
	c0-51.332,0-137.84,0-171.55C461.5,94.699,366.8,0,250,0C133.191,0,38.5,94.699,38.5,211.5z"/>
</g></g><g transform="translate(180,396) scale(0.037,0.037)"><g transform="" style="fill: rgb(255, 255, 255);">
<path d="M250,38.5c116.813,0,211.5,94.693,211.5,211.5c0,116.813-94.687,211.5-211.5,211.5c-116.807,0-211.5-94.687-211.5-211.5
	C38.5,133.193,133.193,38.5,250,38.5z"/>
</g></g><g transform="translate(234,396) scale(0.037,0.037)"><g transform="" style="fill: rgb(255, 255, 255);">
<path d="M250,38.5c116.813,0,211.5,94.693,211.5,211.5c0,116.813-94.687,211.5-211.5,211.5c-116.807,0-211.5-94.687-211.5-211.5
	C38.5,133.193,133.193,38.5,250,38.5z"/>
</g></g><g transform="translate(378,396) scale(0.037,0.037)"><g transform="" style="fill: rgb(255, 255, 255);">
<path d="M250,38.5c116.813,0,211.5,94.693,211.5,211.5c0,116.813-94.687,211.5-211.5,211.5c-116.807,0-211.5-94.687-211.5-211.5
	C38.5,133.193,133.193,38.5,250,38.5z"/>
</g></g><g transform="translate(396,396) scale(0.037,0.037)"><g transform="" style="fill: rgb(255, 255, 255);">
<path d="M250,38.5c116.813,0,211.5,94.693,211.5,211.5c0,116.813-94.687,211.5-211.5,211.5c-116.807,0-211.5-94.687-211.5-211.5
	C38.5,133.193,133.193,38.5,250,38.5z"/>
</g></g><g transform="translate(432,396) scale(0.037,0.037)"><g transform="" style="fill: rgb(255, 255, 255);">
<polygon points="38.5,250 38.5,500 461.5,500 461.5,250 461.5,0 38.5,0 "/>
</g></g><g transform="translate(198,414) scale(0.037,0.037)"><g transform="" style="fill: rgb(255, 255, 255);">
<path d="M250,38.5c116.813,0,211.5,94.693,211.5,211.5c0,116.813-94.687,211.5-211.5,211.5c-116.807,0-211.5-94.687-211.5-211.5
	C38.5,133.193,133.193,38.5,250,38.5z"/>
</g></g><g transform="translate(252,414) scale(0.037,0.037)"><g transform="" style="fill: rgb(255, 255, 255);">
<path d="M250,38.5c116.813,0,211.5,94.693,211.5,211.5c0,116.813-94.687,211.5-211.5,211.5c-116.807,0-211.5-94.687-211.5-211.5
	C38.5,133.193,133.193,38.5,250,38.5z"/>
</g></g><g transform="translate(288,414) scale(0.037,0.037)"><g transform="" style="fill: rgb(255, 255, 255);">
<path d="M38.5,211.5c0,42.907,0,123.188,0,171.55c0,23.857,0,39.95,0,39.95v17.5V470v30h423v-30v-29.5V423c0,0,0-16.216,0-39.95
	c0-51.332,0-137.84,0-171.55C461.5,94.699,366.8,0,250,0C133.191,0,38.5,94.699,38.5,211.5z"/>
</g></g><g transform="translate(306,414) scale(0.037,0.037)"><g transform="" style="fill: rgb(255, 255, 255);">
<path d="M250,38.5c116.813,0,211.5,94.693,211.5,211.5c0,116.813-94.687,211.5-211.5,211.5c-116.807,0-211.5-94.687-211.5-211.5
	C38.5,133.193,133.193,38.5,250,38.5z"/>
</g></g><g transform="translate(342,414) scale(0.037,0.037)"><g transform="" style="fill: rgb(255, 255, 255);">
<path d="M250,38.5c116.813,0,211.5,94.693,211.5,211.5c0,116.813-94.687,211.5-211.5,211.5c-116.807,0-211.5-94.687-211.5-211.5
	C38.5,133.193,133.193,38.5,250,38.5z"/>
</g></g><g transform="translate(360,414) scale(0.037,0.037)"><g transform="" style="fill: rgb(255, 255, 255);">
<path d="M250,38.5c116.813,0,211.5,94.693,211.5,211.5c0,116.813-94.687,211.5-211.5,211.5c-116.807,0-211.5-94.687-211.5-211.5
	C38.5,133.193,133.193,38.5,250,38.5z"/>
</g></g><g transform="translate(432,414) scale(0.037,0.037)"><g transform="" style="fill: rgb(255, 255, 255);">
<polygon points="38.5,250 38.5,500 461.5,500 461.5,250 461.5,0 38.5,0 "/>
</g></g><g transform="translate(144,432) scale(0.037,0.037)"><g transform="" style="fill: rgb(255, 255, 255);">
<path d="M250,38.5c116.813,0,211.5,94.693,211.5,211.5c0,116.813-94.687,211.5-211.5,211.5c-116.807,0-211.5-94.687-211.5-211.5
	C38.5,133.193,133.193,38.5,250,38.5z"/>
</g></g><g transform="translate(162,432) scale(0.037,0.037)"><g transform="" style="fill: rgb(255, 255, 255);">
<path d="M250,38.5c116.813,0,211.5,94.693,211.5,211.5c0,116.813-94.687,211.5-211.5,211.5c-116.807,0-211.5-94.687-211.5-211.5
	C38.5,133.193,133.193,38.5,250,38.5z"/>
</g></g><g transform="translate(180,432) scale(0.037,0.037)"><g transform="" style="fill: rgb(255, 255, 255);">
<path d="M250,38.5c116.813,0,211.5,94.693,211.5,211.5c0,116.813-94.687,211.5-211.5,211.5c-116.807,0-211.5-94.687-211.5-211.5
	C38.5,133.193,133.193,38.5,250,38.5z"/>
</g></g><g transform="translate(216,432) scale(0.037,0.037)"><g transform="" style="fill: rgb(255, 255, 255);">
<path d="M250,38.5c116.813,0,211.5,94.693,211.5,211.5c0,116.813-94.687,211.5-211.5,211.5c-116.807,0-211.5-94.687-211.5-211.5
	C38.5,133.193,133.193,38.5,250,38.5z"/>
</g></g><g transform="translate(288,432) scale(0.037,0.037)"><g transform="" style="fill: rgb(255, 255, 255);">
<path d="M461.5,288.5c0-42.907,0-123.188,0-171.55c0-23.857,0-39.95,0-39.95V59.5V30V0h-423v30v29.5V77c0,0,0,16.216,0,39.95
	c0,51.332,0,137.84,0,171.55C38.5,405.301,133.2,500,250,500C366.809,500,461.5,405.301,461.5,288.5z"/>
</g></g><g transform="translate(378,432) scale(0.037,0.037)"><g transform="" style="fill: rgb(255, 255, 255);">
<path d="M250,38.5c116.813,0,211.5,94.693,211.5,211.5c0,116.813-94.687,211.5-211.5,211.5c-116.807,0-211.5-94.687-211.5-211.5
	C38.5,133.193,133.193,38.5,250,38.5z"/>
</g></g><g transform="translate(432,432) scale(0.037,0.037)"><g transform="" style="fill: rgb(255, 255, 255);">
<path d="M461.5,288.5c0-42.907,0-123.188,0-171.55c0-23.857,0-39.95,0-39.95V59.5V30V0h-423v30v29.5V77c0,0,0,16.216,0,39.95
	c0,51.332,0,137.84,0,171.55C38.5,405.301,133.2,500,250,500C366.809,500,461.5,405.301,461.5,288.5z"/>
</g></g></g></mask></defs></g><rect x="0" y="0" width="450" height="450" fill="url(#grad)" mask="url(#gmask)" /><g transform="translate(0,0) scale(1.26, 1.26)"><g transform="" style="fill: rgb(7, 86, 133);">
<g>
	<path style="fill:none;" d="M65.859,15.008H34.141c-4.082,0-7.869,1.258-10.979,3.398c-2.419,1.665-4.428,3.864-5.848,6.421
		C15.838,27.484,15,30.526,15,33.758v32.471c0,10.344,8.586,18.76,19.145,18.76L50,84.992l15.855-0.004
		C76.414,84.988,85,76.572,85,66.229V33.758C85,23.419,76.414,15.008,65.859,15.008z"/>
	<path d="M65.859,0.008H34.141h0C18.683,0.008,5.587,10.221,1.4,24.18c-0.433,1.444-0.771,2.928-1.006,4.445
		C0.135,30.299,0,32.013,0,33.758v32.471c0,18.619,15.32,33.76,34.141,33.76L50,99.992l15.859-0.004
		c18.82,0,34.141-15.141,34.141-33.76V33.758C100,15.148,84.68,0.008,65.859,0.008z M85,66.229c0,10.344-8.586,18.76-19.145,18.76
		L50,84.992l-15.855-0.004C23.586,84.988,15,76.572,15,66.229V33.758c0-3.231,0.838-6.273,2.313-8.931
		c1.42-2.557,3.429-4.756,5.848-6.421c3.11-2.141,6.897-3.398,10.979-3.398h31.719C76.414,15.008,85,23.419,85,33.758V66.229z"/>
</g>
</g></g><g transform="translate(324,0) scale(1.26, 1.26)"><g transform="" style="fill: rgb(7, 86, 133);">
<g>
	<path style="fill:none;" d="M65.859,15.008H34.141c-4.082,0-7.869,1.258-10.979,3.398c-2.419,1.665-4.428,3.864-5.848,6.421
		C15.838,27.484,15,30.526,15,33.758v32.471c0,10.344,8.586,18.76,19.145,18.76L50,84.992l15.855-0.004
		C76.414,84.988,85,76.572,85,66.229V33.758C85,23.419,76.414,15.008,65.859,15.008z"/>
	<path d="M65.859,0.008H34.141h0C18.683,0.008,5.587,10.221,1.4,24.18c-0.433,1.444-0.771,2.928-1.006,4.445
		C0.135,30.299,0,32.013,0,33.758v32.471c0,18.619,15.32,33.76,34.141,33.76L50,99.992l15.859-0.004
		c18.82,0,34.141-15.141,34.141-33.76V33.758C100,15.148,84.68,0.008,65.859,0.008z M85,66.229c0,10.344-8.586,18.76-19.145,18.76
		L50,84.992l-15.855-0.004C23.586,84.988,15,76.572,15,66.229V33.758c0-3.231,0.838-6.273,2.313-8.931
		c1.42-2.557,3.429-4.756,5.848-6.421c3.11-2.141,6.897-3.398,10.979-3.398h31.719C76.414,15.008,85,23.419,85,33.758V66.229z"/>
</g>
</g></g><g transform="translate(0,324) scale(1.26, 1.26)"><g transform="" style="fill: rgb(7, 86, 133);">
<g>
	<path style="fill:none;" d="M65.859,15.008H34.141c-4.082,0-7.869,1.258-10.979,3.398c-2.419,1.665-4.428,3.864-5.848,6.421
		C15.838,27.484,15,30.526,15,33.758v32.471c0,10.344,8.586,18.76,19.145,18.76L50,84.992l15.855-0.004
		C76.414,84.988,85,76.572,85,66.229V33.758C85,23.419,76.414,15.008,65.859,15.008z"/>
	<path d="M65.859,0.008H34.141h0C18.683,0.008,5.587,10.221,1.4,24.18c-0.433,1.444-0.771,2.928-1.006,4.445
		C0.135,30.299,0,32.013,0,33.758v32.471c0,18.619,15.32,33.76,34.141,33.76L50,99.992l15.859-0.004
		c18.82,0,34.141-15.141,34.141-33.76V33.758C100,15.148,84.68,0.008,65.859,0.008z M85,66.229c0,10.344-8.586,18.76-19.145,18.76
		L50,84.992l-15.855-0.004C23.586,84.988,15,76.572,15,66.229V33.758c0-3.231,0.838-6.273,2.313-8.931
		c1.42-2.557,3.429-4.756,5.848-6.421c3.11-2.141,6.897-3.398,10.979-3.398h31.719C76.414,15.008,85,23.419,85,33.758V66.229z"/>
</g>
</g></g><g transform="translate(36,36) scale(0.54, 0.54)"><g transform="" style="fill: rgb(2, 119, 189);">
<g>
	<g id="XMLID_1_">
		<g>
			<path d="M27.351,100c-15.09,0-27.365-12.032-27.365-26.808V26.794c0-4.616,1.2-8.96,3.301-12.761
				c2.029-3.658,4.901-6.802,8.36-9.174C16.09,1.801,21.506,0,27.336,0h45.327c15.076,0,27.351,12.018,27.351,26.793v46.398
				c0,14.775-12.274,26.808-27.351,26.808H50H27.351z"/>
		</g>
		<g>
		</g>
	</g>
</g>
</g></g><g transform="translate(360,36) scale(0.54, 0.54)"><g transform="" style="fill: rgb(2, 119, 189);">
<g>
	<g id="XMLID_1_">
		<g>
			<path d="M27.351,100c-15.09,0-27.365-12.032-27.365-26.808V26.794c0-4.616,1.2-8.96,3.301-12.761
				c2.029-3.658,4.901-6.802,8.36-9.174C16.09,1.801,21.506,0,27.336,0h45.327c15.076,0,27.351,12.018,27.351,26.793v46.398
				c0,14.775-12.274,26.808-27.351,26.808H50H27.351z"/>
		</g>
		<g>
		</g>
	</g>
</g>
</g></g><g transform="translate(36,360) scale(0.54, 0.54)"><g transform="" style="fill: rgb(2, 119, 189);">
<g>
	<g id="XMLID_1_">
		<g>
			<path d="M27.351,100c-15.09,0-27.365-12.032-27.365-26.808V26.794c0-4.616,1.2-8.96,3.301-12.761
				c2.029-3.658,4.901-6.802,8.36-9.174C16.09,1.801,21.506,0,27.336,0h45.327c15.076,0,27.351,12.018,27.351,26.793v46.398
				c0,14.775-12.274,26.808-27.351,26.808H50H27.351z"/>
		</g>
		<g>
		</g>
	</g>
</g>
</g></g></g></svg>